<?xml version="1.0" encoding="UTF-8" standalone="no"?>
<svg
   xmlns:dc="http://purl.org/dc/elements/1.1/"
   xmlns:cc="http://creativecommons.org/ns#"
   xmlns:rdf="http://www.w3.org/1999/02/22-rdf-syntax-ns#"
   xmlns:svg="http://www.w3.org/2000/svg"
   xmlns="http://www.w3.org/2000/svg"
   xmlns:sodipodi="http://sodipodi.sourceforge.net/DTD/sodipodi-0.dtd"
   xmlns:inkscape="http://www.inkscape.org/namespaces/inkscape"
   fill="#000000"
   height="48"
   viewBox="0 0 24 24"
   width="48"
   version="1.1"
   id="svg6"
   sodipodi:docname="brightness.svg"
   inkscape:version="0.92.2 5c3e80d, 2017-08-06">
  <metadata
     id="metadata12">
    <rdf:RDF>
      <cc:Work
         rdf:about="">
        <dc:format>image/svg+xml</dc:format>
        <dc:type
           rdf:resource="http://purl.org/dc/dcmitype/StillImage" />
      </cc:Work>
    </rdf:RDF>
  </metadata>
  <defs
     id="defs10" />
  <sodipodi:namedview
     pagecolor="#ffffff"
     bordercolor="#666666"
     borderopacity="1"
     objecttolerance="10"
     gridtolerance="10"
     guidetolerance="10"
     inkscape:pageopacity="0"
     inkscape:pageshadow="2"
     inkscape:window-width="817"
     inkscape:window-height="480"
     id="namedview8"
     showgrid="false"
     inkscape:zoom="4.9166667"
     inkscape:cx="24"
     inkscape:cy="24"
     inkscape:window-x="410"
     inkscape:window-y="161"
     inkscape:window-maximized="0"
     inkscape:current-layer="svg6" />
  <path
     d="m 7.5789474,12.736842 c -0.4052632,0 -0.7368421,0.331579 -0.7368421,0.736842 0,0.405263 0.3315789,0.736842 0.7368421,0.736842 0.4052631,0 0.7368421,-0.331579 0.7368421,-0.736842 0,-0.405263 -0.331579,-0.736842 -0.7368421,-0.736842 z m 0,2.947369 c -0.4052632,0 -0.7368421,0.331578 -0.7368421,0.736842 0,0.405263 0.3315789,0.736842 0.7368421,0.736842 0.4052631,0 0.7368421,-0.331579 0.7368421,-0.736842 0,-0.405264 -0.331579,-0.736842 -0.7368421,-0.736842 z m 0,-5.894737 c -0.4052632,0 -0.7368421,0.331579 -0.7368421,0.736842 0,0.405263 0.3315789,0.736842 0.7368421,0.736842 0.4052631,0 0.7368421,-0.331579 0.7368421,-0.736842 0,-0.405263 -0.331579,-0.736842 -0.7368421,-0.736842 z M 5.3684211,10.157895 C 5.1621053,10.157895 5,10.32 5,10.526316 c 0,0.206316 0.1621053,0.368421 0.3684211,0.368421 0.2063157,0 0.368421,-0.162105 0.368421,-0.368421 0,-0.206316 -0.1621053,-0.368421 -0.368421,-0.368421 z M 7.5789474,6.8421053 c -0.4052632,0 -0.7368421,0.3315789 -0.7368421,0.7368417 0,0.405264 0.3315789,0.736842 0.7368421,0.736842 0.4052631,0 0.7368421,-0.331578 0.7368421,-0.736842 0,-0.4052628 -0.331579,-0.7368417 -0.7368421,-0.7368417 z M 18.631579,10.894737 C 18.837895,10.894737 19,10.732632 19,10.526316 19,10.32 18.837895,10.157895 18.631579,10.157895 c -0.206316,0 -0.368421,0.162105 -0.368421,0.368421 0,0.206316 0.162105,0.368421 0.368421,0.368421 z M 13.473684,8.315789 c 0.405263,0 0.736842,-0.331578 0.736842,-0.736842 0,-0.4052628 -0.331579,-0.7368417 -0.736842,-0.7368417 -0.405263,0 -0.736842,0.3315789 -0.736842,0.7368417 0,0.405264 0.331579,0.736842 0.736842,0.736842 z m 0,-2.5789469 c 0.206316,0 0.368421,-0.1621053 0.368421,-0.368421 C 13.842105,5.1621053 13.68,5 13.473684,5 c -0.206316,0 -0.368421,0.1621053 -0.368421,0.3684211 0,0.2063157 0.162105,0.368421 0.368421,0.368421 z M 5.3684211,13.105263 C 5.1621053,13.105263 5,13.267368 5,13.473684 5,13.68 5.1621053,13.842105 5.3684211,13.842105 c 0.2063157,0 0.368421,-0.162105 0.368421,-0.368421 0,-0.206316 -0.1621053,-0.368421 -0.368421,-0.368421 z m 5.1578949,5.157895 c -0.206316,0 -0.368421,0.162105 -0.368421,0.368421 C 10.157895,18.837895 10.32,19 10.526316,19 c 0.206316,0 0.368421,-0.162105 0.368421,-0.368421 0,-0.206316 -0.162105,-0.368421 -0.368421,-0.368421 z m 0,-12.5263159 c 0.206316,0 0.368421,-0.1621053 0.368421,-0.368421 C 10.894737,5.1621053 10.732632,5 10.526316,5 10.32,5 10.157895,5.1621053 10.157895,5.3684211 c 0,0.2063157 0.162105,0.368421 0.368421,0.368421 z m 0,2.5789469 c 0.405263,0 0.736842,-0.331578 0.736842,-0.736842 0,-0.4052628 -0.331579,-0.7368417 -0.736842,-0.7368417 -0.405263,0 -0.7368423,0.3315789 -0.7368423,0.7368417 0,0.405264 0.3315793,0.736842 0.7368423,0.736842 z m 0,4.052632 c -0.6115792,0 -1.1052634,0.493684 -1.1052634,1.105263 0,0.611579 0.4936842,1.105263 1.1052634,1.105263 0.611579,0 1.105263,-0.493684 1.105263,-1.105263 0,-0.611579 -0.493684,-1.105263 -1.105263,-1.105263 z m 5.894737,0.368421 c -0.405264,0 -0.736842,0.331579 -0.736842,0.736842 0,0.405263 0.331578,0.736842 0.736842,0.736842 0.405263,0 0.736842,-0.331579 0.736842,-0.736842 0,-0.405263 -0.331579,-0.736842 -0.736842,-0.736842 z m 0,2.947369 c -0.405264,0 -0.736842,0.331578 -0.736842,0.736842 0,0.405263 0.331578,0.736842 0.736842,0.736842 0.405263,0 0.736842,-0.331579 0.736842,-0.736842 0,-0.405264 -0.331579,-0.736842 -0.736842,-0.736842 z m 0,-5.894737 c -0.405264,0 -0.736842,0.331579 -0.736842,0.736842 0,0.405263 0.331578,0.736842 0.736842,0.736842 0.405263,0 0.736842,-0.331579 0.736842,-0.736842 0,-0.405263 -0.331579,-0.736842 -0.736842,-0.736842 z m 0,-2.9473687 c -0.405264,0 -0.736842,0.3315789 -0.736842,0.7368417 0,0.405264 0.331578,0.736842 0.736842,0.736842 0.405263,0 0.736842,-0.331578 0.736842,-0.736842 0,-0.4052628 -0.331579,-0.7368417 -0.736842,-0.7368417 z m 2.210526,6.2631577 c -0.206316,0 -0.368421,0.162105 -0.368421,0.368421 0,0.206316 0.162105,0.368421 0.368421,0.368421 C 18.837895,13.842105 19,13.68 19,13.473684 19,13.267368 18.837895,13.105263 18.631579,13.105263 Z m -5.157895,2.578948 c -0.405263,0 -0.736842,0.331578 -0.736842,0.736842 0,0.405263 0.331579,0.736842 0.736842,0.736842 0.405263,0 0.736842,-0.331579 0.736842,-0.736842 0,-0.405264 -0.331579,-0.736842 -0.736842,-0.736842 z m 0,2.578947 c -0.206316,0 -0.368421,0.162105 -0.368421,0.368421 0,0.206316 0.162105,0.368421 0.368421,0.368421 0.206316,0 0.368421,-0.162105 0.368421,-0.368421 0,-0.206316 -0.162105,-0.368421 -0.368421,-0.368421 z M 10.526316,9.421053 c -0.6115792,0 -1.1052634,0.493684 -1.1052634,1.105263 0,0.611579 0.4936842,1.105263 1.1052634,1.105263 0.611579,0 1.105263,-0.493684 1.105263,-1.105263 0,-0.611579 -0.493684,-1.105263 -1.105263,-1.105263 z m 0,6.263158 c -0.405263,0 -0.7368423,0.331578 -0.7368423,0.736842 0,0.405263 0.3315793,0.736842 0.7368423,0.736842 0.405263,0 0.736842,-0.331579 0.736842,-0.736842 0,-0.405264 -0.331579,-0.736842 -0.736842,-0.736842 z m 2.947368,-3.31579 c -0.611579,0 -1.105263,0.493684 -1.105263,1.105263 0,0.611579 0.493684,1.105263 1.105263,1.105263 0.611579,0 1.105263,-0.493684 1.105263,-1.105263 0,-0.611579 -0.493684,-1.105263 -1.105263,-1.105263 z m 0,-2.947368 c -0.611579,0 -1.105263,0.493684 -1.105263,1.105263 0,0.611579 0.493684,1.105263 1.105263,1.105263 0.611579,0 1.105263,-0.493684 1.105263,-1.105263 0,-0.611579 -0.493684,-1.105263 -1.105263,-1.105263 z"
     id="path2"
     style="fill:#cccccc;stroke-width:0.7368421"
     inkscape:connector-curvature="0" />
  <path
     d="M0 0h24v24H0z"
     fill="none"
     id="path4" />
</svg>
