<?xml version="1.0" encoding="UTF-8" standalone="no"?>
<svg
   xmlns:dc="http://purl.org/dc/elements/1.1/"
   xmlns:cc="http://creativecommons.org/ns#"
   xmlns:rdf="http://www.w3.org/1999/02/22-rdf-syntax-ns#"
   xmlns:svg="http://www.w3.org/2000/svg"
   xmlns="http://www.w3.org/2000/svg"
   xmlns:sodipodi="http://sodipodi.sourceforge.net/DTD/sodipodi-0.dtd"
   xmlns:inkscape="http://www.inkscape.org/namespaces/inkscape"
   width="48"
   height="48"
   viewBox="0 0 48 48"
   class="feather feather-settings"
   version="1.1"
   id="svg6"
   sodipodi:docname="settings.svg"
   inkscape:version="0.92.2 5c3e80d, 2017-08-06"
   style="fill:none;stroke:currentColor;stroke-width:2;stroke-linecap:round;stroke-linejoin:round">
  <metadata
     id="metadata12">
    <rdf:RDF>
      <cc:Work
         rdf:about="">
        <dc:format>image/svg+xml</dc:format>
        <dc:type
           rdf:resource="http://purl.org/dc/dcmitype/StillImage" />
        <dc:title></dc:title>
      </cc:Work>
    </rdf:RDF>
  </metadata>
  <defs
     id="defs10" />
  <sodipodi:namedview
     pagecolor="#222d32"
     bordercolor="#666666"
     borderopacity="1"
     objecttolerance="10"
     gridtolerance="10"
     guidetolerance="10"
     inkscape:pageopacity="0"
     inkscape:pageshadow="2"
     inkscape:window-width="1326"
     inkscape:window-height="781"
     id="namedview8"
     showgrid="false"
     inkscape:zoom="9.8333333"
     inkscape:cx="-12.915254"
     inkscape:cy="3.8644068"
     inkscape:window-x="140"
     inkscape:window-y="169"
     inkscape:window-maximized="0"
     inkscape:current-layer="svg6" />
  <g
     id="g4505"
     transform="matrix(2.0833333,0,0,2.0833333,-0.99999908,-50.999999)">
    <path
       style="fill:#cccccc;fill-opacity:1;stroke:#cccccc;stroke-width:0.99999994;stroke-miterlimit:4;stroke-dasharray:none;stroke-opacity:1"
       id="path4"
       d="m 15.7,37.5 a 0.82499993,0.82499993 0 0 0 0.165,0.91 l 0.03,0.03 a 0.99999992,0.99999992 0 0 1 0,1.415 0.99999992,0.99999992 0 0 1 -1.415,0 l -0.03,-0.03 A 0.82499993,0.82499993 0 0 0 13.540001,39.66 0.82499993,0.82499993 0 0 0 13.04,40.415 V 40.5 a 0.99999992,0.99999992 0 0 1 -0.999999,1 0.99999992,0.99999992 0 0 1 -1,-1 v -0.045 a 0.82499993,0.82499993 0 0 0 -0.54,-0.755 0.82499993,0.82499993 0 0 0 -0.9099997,0.165 l -0.03,0.03 a 0.99999992,0.99999992 0 0 1 -1.4149999,0 0.99999992,0.99999992 0 0 1 0,-1.415 l 0.03,-0.03 a 0.82499993,0.82499993 0 0 0 0.1649999,-0.91 0.82499993,0.82499993 0 0 0 -0.7549999,-0.5 h -0.085 a 0.99999992,0.99999992 0 0 1 -0.9999999,-1 0.99999992,0.99999992 0 0 1 0.9999999,-1 h 0.045 a 0.82499993,0.82499993 0 0 0 0.755,-0.54 0.82499993,0.82499993 0 0 0 -0.1650002,-0.91 l -0.03,-0.03 a 0.99999992,0.99999992 0 0 1 0,-1.415 0.99999992,0.99999992 0 0 1 1.4149998,0 l 0.03,0.03 a 0.82499993,0.82499993 0 0 0 0.91,0.165 h 0.04 a 0.82499993,0.82499993 0 0 0 0.5,-0.754999 v -0.085 a 0.99999992,0.99999992 0 0 1 1,-1.000001 0.99999992,0.99999992 0 0 1 1,1 v 0.045 a 0.82499993,0.82499993 0 0 0 0.5,0.755 0.82499993,0.82499993 0 0 0 0.91,-0.165 l 0.03,-0.03 a 0.99999992,0.99999992 0 0 1 1.414999,0 0.99999992,0.99999992 0 0 1 0,1.415001 l -0.03,0.03 A 0.82499993,0.82499993 0 0 0 15.66,34.46 V 34.5 A 0.82499993,0.82499993 0 0 0 16.415,35 H 16.5 a 0.99999992,0.99999992 0 0 1 0.999998,1 0.99999992,0.99999992 0 0 1 -1,1 h -0.045 a 0.82499993,0.82499993 0 0 0 -0.755,0.5 z"
       inkscape:connector-curvature="0" />
    <circle
       style="fill:#222d32;fill-opacity:1;stroke:#cccccc;stroke-width:1.78483498;stroke-miterlimit:4;stroke-dasharray:none;stroke-opacity:1"
       id="circle2"
       r="3.3465652"
       cy="36"
       cx="12" />
  </g>
</svg>
