<?xml version="1.0" encoding="UTF-8" standalone="no"?>
<svg
   xmlns:dc="http://purl.org/dc/elements/1.1/"
   xmlns:cc="http://creativecommons.org/ns#"
   xmlns:rdf="http://www.w3.org/1999/02/22-rdf-syntax-ns#"
   xmlns:svg="http://www.w3.org/2000/svg"
   xmlns="http://www.w3.org/2000/svg"
   xmlns:sodipodi="http://sodipodi.sourceforge.net/DTD/sodipodi-0.dtd"
   xmlns:inkscape="http://www.inkscape.org/namespaces/inkscape"
   fill="#000000"
   height="48"
   viewBox="0 0 24 24"
   width="48"
   version="1.1"
   id="svg6"
   sodipodi:docname="browser_pink.svg"
   inkscape:version="0.92.2 5c3e80d, 2017-08-06">
  <metadata
     id="metadata12">
    <rdf:RDF>
      <cc:Work
         rdf:about="">
        <dc:format>image/svg+xml</dc:format>
        <dc:type
           rdf:resource="http://purl.org/dc/dcmitype/StillImage" />
        <dc:title />
      </cc:Work>
    </rdf:RDF>
  </metadata>
  <defs
     id="defs10" />
  <sodipodi:namedview
     pagecolor="#ffffff"
     bordercolor="#666666"
     borderopacity="1"
     objecttolerance="10"
     gridtolerance="10"
     guidetolerance="10"
     inkscape:pageopacity="0"
     inkscape:pageshadow="2"
     inkscape:window-width="1192"
     inkscape:window-height="671"
     id="namedview8"
     showgrid="false"
     inkscape:zoom="4.9166667"
     inkscape:cx="-32.237288"
     inkscape:cy="24"
     inkscape:window-x="679"
     inkscape:window-y="113"
     inkscape:window-maximized="0"
     inkscape:current-layer="svg6" />
  <path
     d="M0 0h24v24H0z"
     fill="none"
     id="path2" />
  <path
     style="fill:none"
     inkscape:connector-curvature="0"
     d="m -30.966101,-3.2542373 h 24 V 20.745763 h -24 z"
     id="path893" />
  <path
     style="fill:none"
     inkscape:connector-curvature="0"
     d="m -27.711864,-2.6440678 h 24 V 21.355932 h -24 z"
     id="path4723" />
  <path
     style="fill:none"
     inkscape:connector-curvature="0"
     d="m -35.847457,4.5762712 h 24 V 28.576271 h -24 z"
     id="path4855" />
  <path
     style="fill:none"
     inkscape:connector-curvature="0"
     d="m -32.791864,5.355932 h 24 v 24 h -24 z"
     id="path4966" />
  <path
     style="fill:none"
     inkscape:connector-curvature="0"
     d="m -19.271186,0 h 24 v 24 h -24 z"
     id="path4" />
  <path
     d="m 11.99375,5.7500002 c -3.45,0 -6.24375,2.8 -6.24375,6.2499998 0,3.45 2.79375,6.25 6.24375,6.25 3.45625,0 6.25625,-2.8 6.25625,-6.25 0,-3.4499998 -2.8,-6.2499998 -6.25625,-6.2499998 z m 4.33125,3.75 h -1.84375 c -0.2,-0.78125 -0.4875,-1.53125 -0.8625,-2.225 1.15,0.39375 2.10625,1.19375 2.70625,2.225 z M 12,7.0250002 c 0.51875,0.75 0.925,1.58125 1.19375,2.475 h -2.3875 c 0.26875,-0.89375 0.675,-1.725 1.19375,-2.475 z M 7.1625,13.25 C 7.0625,12.85 7,12.43125 7,12 7,11.56875 7.0625,11.15 7.1625,10.75 H 9.275 c -0.05,0.4125 -0.0875,0.825 -0.0875,1.25 0,0.425 0.0375,0.8375 0.0875,1.25 z M 7.675,14.5 h 1.84375 c 0.2,0.78125 0.4875,1.53125 0.8625,2.225 C 9.23125,16.33125 8.275,15.5375 7.675,14.5 Z M 9.51875,9.5000002 H 7.675 c 0.6,-1.0375 1.55625,-1.83125 2.70625,-2.225 -0.375,0.69375 -0.6625,1.44375 -0.8625,2.225 z M 12,16.975 C 11.48125,16.225 11.075,15.39375 10.80625,14.5 h 2.3875 C 12.925,15.39375 12.51875,16.225 12,16.975 Z m 1.4625,-3.725 h -2.925 c -0.05625,-0.4125 -0.1,-0.825 -0.1,-1.25 0,-0.425 0.04375,-0.84375 0.1,-1.25 h 2.925 c 0.05625,0.40625 0.1,0.825 0.1,1.25 0,0.425 -0.04375,0.8375 -0.1,1.25 z m 0.15625,3.475 c 0.375,-0.69375 0.6625,-1.44375 0.8625,-2.225 H 16.325 c -0.6,1.03125 -1.55625,1.83125 -2.70625,2.225 z M 14.725,13.25 c 0.05,-0.4125 0.0875,-0.825 0.0875,-1.25 0,-0.425 -0.0375,-0.8375 -0.0875,-1.25 h 2.1125 C 16.9375,11.15 17,11.56875 17,12 c 0,0.43125 -0.0625,0.85 -0.1625,1.25 z"
     id="path4-3"
     style="fill:#e91e63;stroke-width:0.625"
     inkscape:connector-curvature="0" />
</svg>
