<?xml version="1.0" encoding="UTF-8" standalone="no"?>
<svg
   xmlns:dc="http://purl.org/dc/elements/1.1/"
   xmlns:cc="http://creativecommons.org/ns#"
   xmlns:rdf="http://www.w3.org/1999/02/22-rdf-syntax-ns#"
   xmlns:svg="http://www.w3.org/2000/svg"
   xmlns="http://www.w3.org/2000/svg"
   xmlns:sodipodi="http://sodipodi.sourceforge.net/DTD/sodipodi-0.dtd"
   xmlns:inkscape="http://www.inkscape.org/namespaces/inkscape"
   fill="#000000"
   height="48"
   viewBox="0 0 24 24"
   width="48"
   version="1.1"
   id="svg6"
   sodipodi:docname="mail_pink.svg"
   inkscape:version="0.92.2 5c3e80d, 2017-08-06">
  <metadata
     id="metadata12">
    <rdf:RDF>
      <cc:Work
         rdf:about="">
        <dc:format>image/svg+xml</dc:format>
        <dc:type
           rdf:resource="http://purl.org/dc/dcmitype/StillImage" />
        <dc:title></dc:title>
      </cc:Work>
    </rdf:RDF>
  </metadata>
  <defs
     id="defs10" />
  <sodipodi:namedview
     pagecolor="#ffffff"
     bordercolor="#666666"
     borderopacity="1"
     objecttolerance="10"
     gridtolerance="10"
     guidetolerance="10"
     inkscape:pageopacity="0"
     inkscape:pageshadow="2"
     inkscape:window-width="1192"
     inkscape:window-height="671"
     id="namedview8"
     showgrid="false"
     inkscape:zoom="4.9166667"
     inkscape:cx="-14.542373"
     inkscape:cy="24"
     inkscape:window-x="394"
     inkscape:window-y="197"
     inkscape:window-maximized="0"
     inkscape:current-layer="svg6" />
  <path
     d="M0 0h24v24H0z"
     fill="none"
     id="path2" />
  <path
     style="fill:none"
     inkscape:connector-curvature="0"
     d="m -30.966101,-3.2542373 h 24 V 20.745763 h -24 z"
     id="path893" />
  <path
     style="fill:none"
     inkscape:connector-curvature="0"
     d="m -27.711864,-2.6440678 h 24 V 21.355932 h -24 z"
     id="path4723" />
  <rect
     style="fill:#cccccc;fill-opacity:1;stroke:#cccccc;stroke-width:2.13549995;stroke-miterlimit:4;stroke-dasharray:none"
     id="rect4765"
     width="15.661017"
     height="13.525424"
     x="-25.322035"
     y="-7.6271186" />
  <path
     style="fill:none"
     inkscape:connector-curvature="0"
     d="m -35.847457,4.5762712 h 24 V 28.576271 h -24 z"
     id="path4855" />
  <path
     style="fill:#e91e63;stroke-width:0.625"
     inkscape:connector-curvature="0"
     d="M 17,7 H 6.9999999 c -0.6875,0 -1.24375,0.5624997 -1.24375,1.2499999 L 5.7499999,15.75 c 0,0.6875 0.5625,1.25 1.25,1.25 H 17 c 0.6875,0 1.25,-0.5625 1.25,-1.25 V 8.2499999 C 18.25,7.5624997 17.6875,7 17,7 Z m 0,8.75 H 6.9999999 V 9.4999999 L 12,12.625 17,9.4999999 Z M 12,11.375 6.9999999,8.2499999 H 17 Z"
     id="path4857" />
</svg>
