<?xml version="1.0" encoding="UTF-8" standalone="no"?>
<svg
   xmlns:dc="http://purl.org/dc/elements/1.1/"
   xmlns:cc="http://creativecommons.org/ns#"
   xmlns:rdf="http://www.w3.org/1999/02/22-rdf-syntax-ns#"
   xmlns:svg="http://www.w3.org/2000/svg"
   xmlns="http://www.w3.org/2000/svg"
   xmlns:sodipodi="http://sodipodi.sourceforge.net/DTD/sodipodi-0.dtd"
   xmlns:inkscape="http://www.inkscape.org/namespaces/inkscape"
   fill="#000000"
   height="48"
   viewBox="0 0 24 24"
   width="48"
   version="1.1"
   id="svg6"
   sodipodi:docname="settings_pink.svg"
   inkscape:version="0.92.2 5c3e80d, 2017-08-06">
  <metadata
     id="metadata12">
    <rdf:RDF>
      <cc:Work
         rdf:about="">
        <dc:format>image/svg+xml</dc:format>
        <dc:type
           rdf:resource="http://purl.org/dc/dcmitype/StillImage" />
        <dc:title />
      </cc:Work>
    </rdf:RDF>
  </metadata>
  <defs
     id="defs10" />
  <sodipodi:namedview
     pagecolor="#ffffff"
     bordercolor="#666666"
     borderopacity="1"
     objecttolerance="10"
     gridtolerance="10"
     guidetolerance="10"
     inkscape:pageopacity="0"
     inkscape:pageshadow="2"
     inkscape:window-width="1192"
     inkscape:window-height="671"
     id="namedview8"
     showgrid="false"
     inkscape:zoom="4.9166667"
     inkscape:cx="-32.237288"
     inkscape:cy="24"
     inkscape:window-x="394"
     inkscape:window-y="197"
     inkscape:window-maximized="0"
     inkscape:current-layer="svg6" />
  <path
     d="M0 0h24v24H0z"
     fill="none"
     id="path2" />
  <path
     style="fill:none"
     inkscape:connector-curvature="0"
     d="m -30.966101,-3.2542373 h 24 V 20.745763 h -24 z"
     id="path893" />
  <path
     style="fill:none"
     inkscape:connector-curvature="0"
     d="m -27.711864,-2.6440678 h 24 V 21.355932 h -24 z"
     id="path4723" />
  <path
     style="fill:none"
     inkscape:connector-curvature="0"
     d="m -35.847457,4.5762712 h 24 V 28.576271 h -24 z"
     id="path4855" />
  <path
     style="fill:none"
     inkscape:connector-curvature="0"
     d="m -32.791864,5.355932 h 24 v 24 h -24 z"
     id="path4966" />
  <path
     style="fill:none"
     inkscape:connector-curvature="0"
     d="m -19.271186,0 h 24 v 24 h -24 z"
     id="path4" />
  <path
     style="fill:none"
     inkscape:connector-curvature="0"
     d="m -19.271186,0 h 24 v 24 h -24 z"
     id="path2-1" />
  <path
     d="m 16.775443,12.629683 c 0.0257,-0.205611 0.04498,-0.411221 0.04498,-0.629683 0,-0.218461 -0.01928,-0.424072 -0.04498,-0.629682 l 1.355745,-1.06018 c 0.122081,-0.09638 0.154208,-0.269864 0.0771,-0.4112215 l -1.285067,-2.223166 c -0.0771,-0.141357 -0.250588,-0.192759 -0.391945,-0.141357 l -1.599908,0.642533 C 14.597255,7.9199135 14.237436,7.7078775 13.845491,7.5472445 L 13.601328,5.8445312 c -0.01928,-0.154208 -0.154208,-0.269864 -0.314841,-0.269864 h -2.570133 c -0.160633,0 -0.295565,0.115656 -0.314841,0.269864 L 10.15735,7.5472445 c -0.3919456,0.160633 -0.7517642,0.379094 -1.0858813,0.629682 l -1.599908,-0.642533 c -0.147783,-0.05783 -0.314841,0 -0.391945,0.141357 l -1.285067,2.223166 c -0.08353,0.1413575 -0.04498,0.3148415 0.0771,0.4112215 l 1.355745,1.06018 c -0.0257,0.20561 -0.04498,0.417646 -0.04498,0.629682 0,0.212036 0.01928,0.424072 0.04498,0.629683 l -1.355745,1.06018 c -0.122081,0.09638 -0.154208,0.269864 -0.0771,0.411221 l 1.285067,2.223165 c 0.0771,0.141358 0.250588,0.19276 0.391945,0.141358 l 1.599908,-0.642534 c 0.3341171,0.257014 0.6939357,0.46905 1.0858813,0.629683 l 0.244163,1.702713 c 0.01928,0.154208 0.154208,0.269864 0.314841,0.269864 h 2.570133 c 0.160633,0 0.295565,-0.115656 0.314841,-0.269864 l 0.244163,-1.702713 c 0.391945,-0.160633 0.751764,-0.379095 1.085881,-0.629683 l 1.599908,0.642534 c 0.147783,0.05783 0.314841,0 0.391945,-0.141358 l 1.285067,-2.223165 c 0.0771,-0.141357 0.04498,-0.314841 -0.0771,-0.411221 z m -4.774023,1.619184 c -1.240089,0 -2.2488662,-1.008777 -2.2488662,-2.248867 0,-1.240089 1.0087772,-2.2488665 2.2488662,-2.2488665 1.24009,0 2.248867,1.0087775 2.248867,2.2488665 0,1.24009 -1.008777,2.248867 -2.248867,2.248867 z"
     id="path4-2"
     style="fill:#e91e63;stroke-width:0.64253324"
     inkscape:connector-curvature="0" />
</svg>
