<?xml version="1.0" encoding="UTF-8" standalone="no"?>
<svg
   xmlns:dc="http://purl.org/dc/elements/1.1/"
   xmlns:cc="http://creativecommons.org/ns#"
   xmlns:rdf="http://www.w3.org/1999/02/22-rdf-syntax-ns#"
   xmlns:svg="http://www.w3.org/2000/svg"
   xmlns="http://www.w3.org/2000/svg"
   xmlns:sodipodi="http://sodipodi.sourceforge.net/DTD/sodipodi-0.dtd"
   xmlns:inkscape="http://www.inkscape.org/namespaces/inkscape"
   fill="#000000"
   height="48"
   viewBox="0 0 24 24"
   width="48"
   version="1.1"
   id="svg6"
   sodipodi:docname="settings.svg"
   inkscape:version="0.92.2 5c3e80d, 2017-08-06">
  <metadata
     id="metadata12">
    <rdf:RDF>
      <cc:Work
         rdf:about="">
        <dc:format>image/svg+xml</dc:format>
        <dc:type
           rdf:resource="http://purl.org/dc/dcmitype/StillImage" />
      </cc:Work>
    </rdf:RDF>
  </metadata>
  <defs
     id="defs10" />
  <sodipodi:namedview
     pagecolor="#ffffff"
     bordercolor="#666666"
     borderopacity="1"
     objecttolerance="10"
     gridtolerance="10"
     guidetolerance="10"
     inkscape:pageopacity="0"
     inkscape:pageshadow="2"
     inkscape:window-width="817"
     inkscape:window-height="480"
     id="namedview8"
     showgrid="false"
     inkscape:zoom="4.9166667"
     inkscape:cx="24"
     inkscape:cy="24"
     inkscape:window-x="0"
     inkscape:window-y="0"
     inkscape:window-maximized="0"
     inkscape:current-layer="svg6" />
  <path
     d="M0 0h24v24H0z"
     fill="none"
     id="path2" />
  <path
     d="m 16.775442,12.629683 c 0.0257,-0.205611 0.04498,-0.411221 0.04498,-0.629683 0,-0.218461 -0.01928,-0.424072 -0.04498,-0.629682 l 1.355745,-1.06018 c 0.122081,-0.09638 0.154208,-0.269864 0.0771,-0.4112213 L 16.92322,7.6757507 c -0.0771,-0.141357 -0.250588,-0.192759 -0.391945,-0.141357 l -1.599908,0.642533 C 14.597254,7.9199137 14.237435,7.7078777 13.84549,7.5472447 L 13.601327,5.8445314 c -0.01928,-0.154208 -0.154208,-0.269864 -0.314841,-0.269864 h -2.570133 c -0.160633,0 -0.295565,0.115656 -0.314841,0.269864 L 10.157349,7.5472447 C 9.7654037,7.7078777 9.4055851,7.9263387 9.0714678,8.1769267 L 7.47156,7.5343937 c -0.1477827,-0.05783 -0.3148413,0 -0.3919453,0.141357 l -1.2850665,2.223166 c -0.083529,0.1413573 -0.044977,0.3148413 0.077104,0.4112213 l 1.3557452,1.06018 C 7.2016964,11.575928 7.1824204,11.787964 7.1824204,12 c 0,0.212036 0.019276,0.424072 0.044977,0.629683 l -1.3557452,1.06018 c -0.1220813,0.09638 -0.1542079,0.269864 -0.077104,0.411221 l 1.2850665,2.223165 c 0.077104,0.141358 0.250588,0.19276 0.3919453,0.141358 l 1.5999078,-0.642534 c 0.3341173,0.257014 0.6939359,0.46905 1.0858812,0.629683 l 0.244163,1.702713 c 0.01928,0.154208 0.154208,0.269864 0.314841,0.269864 h 2.570133 c 0.160633,0 0.295565,-0.115656 0.314841,-0.269864 l 0.244163,-1.702713 c 0.391945,-0.160633 0.751764,-0.379095 1.085881,-0.629683 l 1.599908,0.642534 c 0.147783,0.05783 0.314841,0 0.391945,-0.141358 l 1.285067,-2.223165 c 0.0771,-0.141357 0.04498,-0.314841 -0.0771,-0.411221 z m -4.774023,1.619184 C 10.76133,14.248867 9.7525531,13.24009 9.7525531,12 c 0,-1.240089 1.0087769,-2.2488663 2.2488659,-2.2488663 1.24009,0 2.248867,1.0087773 2.248867,2.2488663 0,1.24009 -1.008777,2.248867 -2.248867,2.248867 z"
     id="path4"
     style="fill:#cccccc;stroke-width:0.64253324"
     inkscape:connector-curvature="0" />
</svg>
