<?xml version="1.0" encoding="UTF-8" standalone="no"?>
<svg
   xmlns:dc="http://purl.org/dc/elements/1.1/"
   xmlns:cc="http://creativecommons.org/ns#"
   xmlns:rdf="http://www.w3.org/1999/02/22-rdf-syntax-ns#"
   xmlns:svg="http://www.w3.org/2000/svg"
   xmlns="http://www.w3.org/2000/svg"
   xmlns:sodipodi="http://sodipodi.sourceforge.net/DTD/sodipodi-0.dtd"
   xmlns:inkscape="http://www.inkscape.org/namespaces/inkscape"
   fill="#000000"
   height="48"
   viewBox="0 0 24 24"
   width="48"
   version="1.1"
   id="svg6"
   sodipodi:docname="software.svg"
   inkscape:version="0.92.2 5c3e80d, 2017-08-06">
  <metadata
     id="metadata12">
    <rdf:RDF>
      <cc:Work
         rdf:about="">
        <dc:format>image/svg+xml</dc:format>
        <dc:type
           rdf:resource="http://purl.org/dc/dcmitype/StillImage" />
        <dc:title></dc:title>
      </cc:Work>
    </rdf:RDF>
  </metadata>
  <defs
     id="defs10" />
  <sodipodi:namedview
     pagecolor="#ffffff"
     bordercolor="#666666"
     borderopacity="1"
     objecttolerance="10"
     gridtolerance="10"
     guidetolerance="10"
     inkscape:pageopacity="0"
     inkscape:pageshadow="2"
     inkscape:window-width="1192"
     inkscape:window-height="671"
     id="namedview8"
     showgrid="false"
     inkscape:zoom="4.9166667"
     inkscape:cx="-14.542373"
     inkscape:cy="24"
     inkscape:window-x="394"
     inkscape:window-y="197"
     inkscape:window-maximized="0"
     inkscape:current-layer="svg6" />
  <path
     d="M0 0h24v24H0z"
     fill="none"
     id="path2" />
  <path
     style="fill:none"
     inkscape:connector-curvature="0"
     d="m -30.966101,-3.2542373 h 24 V 20.745763 h -24 z"
     id="path893" />
  <path
     style="fill:none"
     inkscape:connector-curvature="0"
     d="m -27.711864,-2.6440678 h 24 V 21.355932 h -24 z"
     id="path4723" />
  <rect
     style="fill:#cccccc;fill-opacity:1;stroke:#cccccc;stroke-width:2.13549995;stroke-miterlimit:4;stroke-dasharray:none"
     id="rect4765"
     width="15.661017"
     height="13.525424"
     x="-25.322035"
     y="-7.6271186" />
  <path
     style="fill:none"
     inkscape:connector-curvature="0"
     d="m -35.847457,4.5762712 h 24 V 28.576271 h -24 z"
     id="path4855" />
  <path
     style="fill:none"
     inkscape:connector-curvature="0"
     d="m -32.791864,5.355932 h 24 v 24 h -24 z"
     id="path4966" />
  <path
     style="fill:none"
     inkscape:connector-curvature="0"
     d="m -19.271186,0 h 24 v 24 h -24 z"
     id="path4" />
  <path
     style="fill:none"
     inkscape:connector-curvature="0"
     d="m -19.271186,0 h 24 v 24 h -24 z"
     id="path2-1" />
  <path
     style="fill:none"
     inkscape:connector-curvature="0"
     d="m -32.847457,-0.41372878 h 24 V 23.586271 h -24 z"
     id="path5304" />
  <path
     style="fill:#cccccc;stroke-width:0.56818181"
     inkscape:connector-curvature="0"
     d="M 12,14.272727 14.272727,12 H 12.568182 V 6.8863636 H 11.431818 V 12 H 9.7272727 Z m 5.113636,-7.3863634 h -3.40909 v 1.1306819 h 3.40909 V 15.988636 H 6.8863636 V 8.0170455 H 10.295455 V 6.8863636 H 6.8863636 C 6.2613636,6.8863636 5.75,7.3977272 5.75,8.0227272 v 7.9545458 c 0,0.625 0.5113636,1.136363 1.1363636,1.136363 H 17.113636 c 0.625,0 1.136364,-0.511363 1.136364,-1.136363 V 8.0227272 c 0,-0.625 -0.511364,-1.1363636 -1.136364,-1.1363636 z"
     id="path5306" />
</svg>
